<svg data-v-0dd9719b="" version="1.0" xmlns="http://www.w3.org/2000/svg" xmlns:xlink="http://www.w3.org/1999/xlink" width="100%" height="100%" viewBox="0 0 340.000000 250.000000" preserveAspectRatio="xMidYMid meet" color-interpolation-filters="sRGB" style="margin: auto;"> <rect data-v-0dd9719b="" x="0" y="0" width="100%" height="100%" fill="#fff" fill-opacity="1" class="background"></rect> <rect data-v-0dd9719b="" x="0" y="0" width="100%" height="100%" fill="url(#watermark)" fill-opacity="1" class="watermarklayer"></rect> <g data-v-0dd9719b="" fill="#333" class="icon-text-wrapper icon-svg-group iconsvg" transform="translate(48.75,94.95583534240723)"><g class="iconsvg-imagesvg" transform="translate(0,0)"><g><rect fill="#333" fill-opacity="0" stroke-width="2" x="0" y="0" width="60" height="60.08832984487196" class="image-rect"></rect> <svg x="0" y="0" width="60" height="60.08832984487196" filtersec="colorsb3032552660" class="image-svg-svg primary" style="overflow: visible;"><svg xmlns="http://www.w3.org/2000/svg" viewBox="-0.001293182373046875 0.002758026123046875 99.85157775878906 99.99821472167969"><g fill-rule="evenodd"><path d="M46.48 18.63l1.23-.71.62-.35.49-.27C81.4-.63 110.38 7.82 87.5 44.17c-.64 1-1.33 2.08-2.06 3.15-.86-1.47-1.76-2.94-2.73-4.41l-.34-.68q1-1.53 1.86-2.91c12.24-21-17.45-17.65-50.13 3.41l-1-2a29.42 29.42 0 0 1-1.46-3.48c-.79-2.27-1.44-4.44-1.93-6.47a112.67 112.67 0 0 1 12.8-9.7l1.49-.94.62-.38c.62-.39 1.23-.76 1.85-1.12zM18.59 53.76a109.86 109.86 0 0 0 12.85 17.76 47.53 47.53 0 0 0 8.69-3.3l2.92-1.46a141.32 141.32 0 0 1-13.54-26.32 74.21 74.21 0 0 1-3.22-10.75C23.38 15.68 28 8.86 41.72 17.92q2.53-1.61 5.11-3.05C10.23-9.6.2 16.24 15.34 47.61q1.47 3.05 3.25 6.15zm51.86 16.73c-.32-1.29-.71-2.69-1.19-4.23a48.42 48.42 0 0 0-2.76-6.82l-.45-.89c-34.1 22-64.95 24.71-48.27.51a94.943 94.943 0 0 1-3.12-5c-25.42 37.37.92 47.55 32.69 32a98.59 98.59 0 0 0 11.13-6.41 111 111 0 0 0 11.97-9.16zm11.11-23a110.89 110.89 0 0 0-12.84-17.74q-2.58.7-5.51 1.72l-6.1 3A141.2 141.2 0 0 1 70.7 61c.07.19.14.37.2.56s.19.49.27.73.2.56.29.83c.34 1 .65 1.91.93 2.83.06.18.11.36.16.54l.14.47c.06.22.13.44.19.65.05.17.1.34.14.51.33 1.21.61 2.37.84 3.49 2.91 14-1.73 20.8-15.42 11.75l-5.11 3C89.93 110.87 100 85 84.82 53.67q-1.47-3.04-3.26-6.14z" fill="#15355c"></path><path d="M49 13.47l-.48.27c-1.19-.79-2.35-1.53-3.48-2.21.61-.38 1.22-.75 1.83-1.1l1.23-.7.62-.36.49-.27C75.2-5.2 98.87-2.75 95.86 17.22 94.9 1.36 72.93.31 49 13.47zM10 53.22c.65 1.12 1.33 2.24 2 3.37.67-1.07 1.38-2.16 2.14-3.28q-1.74-3-3.18-6C.34 25.12 2.21 5.71 17.15 4.88-1.61 2.1-4.85 23 6.79 47.07q1.47 3.05 3.26 6.15zm37 36.6c-20.31 9.93-38.39 9.36-42.17-2.1 1.39 14.46 20.81 16.06 42.85 5.28 2.33-1.14 4.68-2.41 7.06-3.83q-1.43-.87-2.91-1.86-2.41 1.34-4.83 2.51zM93 54.1q-1.47-3-3.26-6.14l-1-1.67-.11.17c-.63 1-1.31 2-2 3.08.8 1.46 1.55 2.92 2.25 4.36 10.71 22.19 8.82 41.62-6.17 42.41C101.47 99 104.69 78.19 93.06 54.1z" fill="#009ed6"></path></g></svg></svg> <!----></g></g> <g transform="translate(67,1.4901046752929688)"><g data-gra="path-name" fill-rule="" class="tp-name iconsvg-namesvg" transform="translate(0,0)"><g transform="scale(1)"><g><path d="M2.92 4.81L1.75 3.38Q5.85 0.85 9.31-2.43 12.78-5.71 15.34-9.34 17.91-12.96 19.46-16.76 21.02-20.56 21.38-24.16L21.38-24.16 3.1-24.16 3.1-25.79 21.51-25.79 21.51-26.14 21.51-36.54 23.18-36.54 23.18-26.05 23.18-25.79 41.76-25.79 41.76-24.16 23.13-24.16Q23.49-20.84 25.18-17.03 26.86-13.23 29.54-9.52 32.22-5.8 35.68-2.5 39.15 0.81 43.06 3.15L43.06 3.15 41.98 4.63Q38.52 2.56 35.39-0.36 32.27-3.28 29.68-6.61 27.09-9.95 25.22-13.46 23.36-16.96 22.41-20.25L22.41-20.25Q21.51-16.88 19.75-13.43 18-9.99 15.48-6.71 12.96-3.42 9.79-0.47 6.61 2.48 2.92 4.81L2.92 4.81ZM16.43-6.66L17.59-7.79Q18.4-7.06 19.53-5.83 20.65-4.59 21.82-3.22 22.99-1.84 24.01-0.54 25.02 0.77 25.61 1.57L25.61 1.57 24.3 2.56Q23.58 1.57 22.54 0.27 21.51-1.03 20.41-2.34 19.3-3.65 18.25-4.79 17.19-5.94 16.43-6.66L16.43-6.66ZM64.31 4.18L63.95 2.29Q64.8 2.38 65.9 2.43 67 2.48 67.91 2.43L67.91 2.43Q69.16 2.38 69.88 2.27 70.61 2.16 70.99 1.82 71.37 1.48 71.48 0.85 71.59 0.22 71.59-0.81L71.59-0.81 71.59-10.98 60.34-10.98 60.34-26.5 68.53-26.5Q68.76-27.04 69.01-27.72 69.25-28.39 69.53-29.2L69.53-29.2Q69.88-30.15 70.09-30.96 70.29-31.77 70.47-32.4L70.47-32.4 54.09-32.4 54.09-19.89Q54.09-10.39 52.92-5.22L52.92-5.22Q52.34-2.65 51.23-0.11 50.13 2.43 48.42 5.26L48.42 5.26 46.94 4.41Q48.65 1.62 49.77-0.94 50.89-3.51 51.44-5.85L51.44-5.85Q52.52-10.57 52.52-19.84L52.52-19.84 52.52-33.93 87.84-33.93 87.84-32.4 72.27-32.4Q71.91-30.91 71.19-28.8L71.19-28.8 70.38-26.5 83.52-26.5 83.52-10.98 73.22-10.98 73.22-0.54Q73.22 0.72 73.03 1.55 72.86 2.38 72.31 2.92 71.78 3.46 70.83 3.71 69.88 3.96 68.36 4.09L68.36 4.09Q67.36 4.18 66.28 4.21 65.2 4.23 64.31 4.18L64.31 4.18ZM61.88-12.42L81.99-12.42 81.99-18.18 61.88-18.18 61.88-12.42ZM61.88-25.15L61.88-19.62 81.99-19.62 81.99-25.15 61.88-25.15ZM55.53 3.55L54.45 2.29Q57.06 0.09 59.67-2.65L59.67-2.65Q62.28-5.44 63.9-7.83L63.9-7.83 65.11-6.84Q63.5-4.46 60.8-1.57L60.8-1.57Q59.45-0.14 58.14 1.15 56.84 2.43 55.53 3.55L55.53 3.55ZM77.53-6.48L78.62-7.56Q80.59-6.08 83.52-3.19L83.52-3.19Q85-1.75 86.15-0.56 87.3 0.63 88.11 1.62L88.11 1.62 87.03 2.75Q86.22 1.75 85.07 0.56 83.92-0.63 82.39-2.07L82.39-2.07Q80.91-3.51 79.69-4.61 78.48-5.71 77.53-6.48L77.53-6.48ZM92.75-27.13L101.3-27.13 101.3-36.95 102.87-36.95 102.87-27.13 111.56-27.13 111.56-25.52 102.87-25.52 102.87-21.69Q104.17-20.65 105.46-19.44 106.74-18.22 108.05-17.01L108.05-17.01Q109.35-15.75 110.34-14.67 111.33-13.59 111.96-12.82L111.96-12.82 110.79-11.65Q109.58-13.28 107.14-15.71L107.14-15.71Q106.02-16.88 104.89-17.91 103.77-18.95 102.87-19.71L102.87-19.71 102.87 5.44 101.3 5.44 101.3-21.82Q99.86-17.86 97.83-13.97 95.81-10.08 93.06-6.08L93.06-6.08 91.58-7.06Q94.86-11.61 97.31-16.38 99.77-21.15 101.07-25.52L101.07-25.52 92.75-25.52 92.75-27.13ZM117.67-36.67L119.25-36.67 119.25-23.76Q120.64-22.95 122.35-21.78 124.06-20.61 126.22-19.04L126.22-19.04Q130.72-15.71 133.2-13.28L133.2-13.28 132.12-12.01Q130.91-13.23 129.24-14.6 127.57-15.97 125.28-17.68L125.28-17.68Q121.68-20.43 119.25-21.91L119.25-21.91 119.25 5.31 117.67 5.31 117.67-36.67ZM143.82-14.08L143.69-15.43Q146.12-15.39 149.42-15.46 152.73-15.52 156.24-15.68 159.75-15.84 163.06-16.06 166.37-16.29 168.8-16.56L168.8-16.56 169.11-15.34Q166.81-15.07 163.78-14.85 160.74-14.63 157.45-14.45L157.45-14.45 157.45-11.47 175.77-11.47 175.77-10.3 160.11-10.3Q163.26-8.28 167.47-6.75 171.68-5.22 177.25-4.05L177.25-4.05 176.85-2.65Q174.74-3.1 172.84-3.6 170.95-4.09 169.25-4.68L169.25-4.68 169.25 4.63 144.22 4.63 144.22-4.63Q140.9-3.46 136.71-2.56L136.71-2.56 136.35-3.96Q141.84-5.08 146-6.68 150.16-8.28 153.31-10.3L153.31-10.3 138.28-10.3 138.28-11.47 156.06-11.47 156.06-14.4Q152.59-14.22 149.4-14.13 146.21-14.04 143.82-14.08L143.82-14.08ZM137.12-11.88L136.03-12.73Q138.15-15.16 138.91-17.05L138.91-17.05Q139.68-18.95 139.68-21.6L139.68-21.6 139.68-25.11 155.88-25.11 155.88-19.17 140.81-19.17Q140.58-17.19 139.7-15.55 138.82-13.9 137.12-11.88L137.12-11.88ZM145.71-4.05L145.71-0.85 167.81-0.85 167.81-4.05 145.71-4.05ZM145.71 3.33L167.81 3.33 167.81 0.27 145.71 0.27 145.71 3.33ZM158.94-23.45L159.39-24.52Q160.83-24.07 162.7-23.36 164.56-22.63 166.59-21.78L166.59-21.78Q169.88-23.4 172.31-25.79L172.31-25.79 158.35-25.79 158.35-27 174.19-27 174.19-25.83Q171.54-23.09 168.07-21.15L168.07-21.15Q170.73-19.98 173.09-18.79 175.45-17.59 177.03-16.7L177.03-16.7 176.4-15.62Q174.78-16.61 172.19-17.91 169.6-19.21 166.77-20.43L166.77-20.43Q164.7-19.44 162.34-18.65 159.97-17.86 157.14-17.23L157.14-17.23 156.69-18.4Q161.59-19.48 165.19-21.11L165.19-21.11Q163.49-21.87 161.87-22.45 160.25-23.04 158.94-23.45L158.94-23.45ZM136.71-33.34L147.15-33.34 147.15-36.72 148.54-36.72 148.54-33.34 158.22-33.34 158.22-32.13 148.54-32.13 148.54-29.02 156.96-29.02 156.96-27.81 138.69-27.81 138.69-29.02 147.15-29.02 147.15-32.13 136.71-32.13 136.71-33.34ZM157.45-6.39L156.06-6.39 156.06-10.3 155.43-10.3Q153.54-8.91 151.25-7.65 148.95-6.39 146.12-5.31L146.12-5.31 167.53-5.31Q164.66-6.39 162.31-7.63 159.97-8.87 158.09-10.3L158.09-10.3 157.45-10.3 157.45-6.39ZM158.72-27.68L157.86-28.71Q158.85-29.25 159.46-29.7 160.06-30.15 160.4-30.62 160.74-31.09 160.83-31.61 160.92-32.13 160.92-32.8L160.92-32.8 160.92-34.6 171.63-34.6 171.63-31.81Q171.63-30.73 171.9-30.42 172.17-30.11 173.2-30.06L173.2-30.06Q173.97-29.97 174.82-29.99 175.68-30.02 176.49-30.11L176.49-30.11 176.31-28.89Q175.32-28.8 174.4-28.82 173.47-28.84 172.53-28.93L172.53-28.93Q171.22-29.02 170.73-29.56 170.24-30.11 170.24-31.36L170.24-31.36 170.24-33.48 162.31-33.48 162.31-32.45Q162.31-31.68 162.16-31.07 162-30.46 161.59-29.92 161.19-29.38 160.49-28.82 159.79-28.26 158.72-27.68L158.72-27.68ZM140.94-23.89L140.94-21.33Q140.94-21.06 140.94-20.84 140.94-20.61 140.9-20.38L140.9-20.38 147.28-20.38 147.28-23.89 140.94-23.89ZM154.66-23.89L148.46-23.89 148.46-20.38 154.66-20.38 154.66-23.89Z" transform="translate(-1.75, 36.95000076293945)"></path></g> <!----> <!----> <!----> <!----> <!----> <!----> <!----></g></g> <g data-gra="path-slogan" fill-rule="" class="tp-slogan iconsvg-slogansvg" fill="#333" transform="translate(5,48.38999938964844)"><rect x="0" height="1" y="3.8600001335144043" width="34.49500274658203"></rect> <rect height="1" y="3.8600001335144043" width="34.49500274658203" x="131.00499725341797"></rect> <g transform="translate(37.49500274658203,0)"><g transform="scale(1)"><path d="M3.09-7.59L0.19-7.59L0.19-8.58L7.13-8.58L7.13-7.59L4.22-7.59L4.22 0L3.09 0L3.09-7.59ZM13.83 0L12.98-2.48L9.52-2.48L8.63 0L7.45 0L10.69-8.58L12-8.58L15.09 0L13.83 0ZM11.25-7.31L9.89-3.52L12.56-3.52L11.30-7.31L11.25-7.31ZM16.31-8.58L17.48-8.58L17.48 0L16.31 0L16.31-8.58ZM26.39-8.58L23.16-3.47L23.16 0L21.98 0L21.98-3.47L18.75-8.58L20.11-8.58L22.55-4.45L25.03-8.58L26.39-8.58ZM33.09-3.19L33.09-8.58L34.27-8.58L34.27-3.05Q34.13 0.05 30.75 0.14L30.75 0.14Q27.61 0.05 27.47-2.86L27.47-2.86L27.47-8.58L28.64-8.58L28.64-3.19Q28.69-0.84 30.80-0.80L30.80-0.80Q33.09-0.84 33.09-3.19L33.09-3.19ZM41.72 0L40.88-2.48L37.41-2.48L36.52 0L35.34 0L38.58-8.58L39.89-8.58L42.98 0L41.72 0ZM39.14-7.31L37.78-3.52L40.45-3.52L39.19-7.31L39.14-7.31ZM45.42-8.58L49.73-1.64L49.73-8.58L50.86-8.58L50.86 0L49.55 0L45.19-6.94L45.14-6.94L45.14 0L44.02 0L44.02-8.58L45.42-8.58ZM59.63-7.64L57.28-7.64L57.28-4.64L59.58-4.64Q61.36-4.64 61.36-6.19L61.36-6.19Q61.36-7.59 59.63-7.64L59.63-7.64ZM60-3.61L57.28-3.61L57.28 0L56.11 0L56.11-8.58L60-8.58Q62.44-8.48 62.53-6.19L62.53-6.19Q62.39-3.70 60-3.61L60-3.61ZM69.61-3.19L69.61-8.58L70.78-8.58L70.78-3.05Q70.64 0.05 67.27 0.14L67.27 0.14Q64.13 0.05 63.98-2.86L63.98-2.86L63.98-8.58L65.16-8.58L65.16-3.19Q65.20-0.84 67.31-0.80L67.31-0.80Q69.61-0.84 69.61-3.19L69.61-3.19ZM79.31-8.58L76.41-4.41L79.45 0L78 0L75.66-3.52L73.31 0L71.91 0L75-4.41L72.09-8.58L73.55-8.58L75.70-5.30L77.91-8.58L79.31-8.58ZM80.72-8.58L81.89-8.58L81.89 0L80.72 0L80.72-8.58ZM85.27-8.58L89.58-1.64L89.58-8.58L90.70-8.58L90.70 0L89.39 0L85.03-6.94L84.98-6.94L84.98 0L83.86 0L83.86-8.58L85.27-8.58Z" transform="translate(-0.1875, 8.578125)"></path></g></g></g></g></g><defs v-gra="od"></defs></svg>